<svg width="60" height="60" viewBox="0 0 60 60" fill="none" xmlns="http://www.w3.org/2000/svg">
<path d="M45.7592 17.6133C45.7592 22.5041 44.1533 29.0251 36.4451 31.6335C38.6933 26.0907 39.0145 20.5478 37.4086 15.331C35.1604 8.48391 27.7733 3.26709 22.6345 0.332634C21.3498 -0.64552 19.1016 0.658685 19.4227 2.61499C19.4227 6.20155 18.4592 11.4184 12.9992 16.9612C5.93333 24.1344 2.40039 31.6335 2.40039 38.8067C2.40039 48.2622 8.82392 60 21.671 60C8.82392 46.958 18.4592 35.5462 18.4592 35.5462C21.0286 54.7832 34.518 60 40.9416 60C46.4016 60 57.0004 56.0874 57.0004 39.1327C57.0004 29.0251 52.8251 21.1999 49.2922 16.6352C48.3286 15.0049 46.0804 15.9831 45.7592 17.6133Z" fill="#FADA25"/>
</svg>
